<svg xmlns="http://www.w3.org/2000/svg" viewBox="0 0 24 24" fill="white">
  <path d="M19.4,11.5c-0.2-0.8-0.5-1.6-1-2.3l1.5-1.5c0.4-0.4,0.4-1,0-1.4l-2.1-2.1c-0.4-0.4-1-0.4-1.4,0l-1.5,1.5 c-0.7-0.5-1.5-0.8-2.3-1C12.2,4.1,12,4,11.7,4h-3C8.4,4,8.2,4.1,8.1,4.2C7.3,4.5,6.5,4.8,5.8,5.3L4.3,3.8 c-0.4-0.4-1-0.4-1.4,0L0.8,5.8C0.4,6.2,0.4,6.8,0.8,7.2l1.5,1.5C2.3,9.4,2,10.2,1.8,11c-0.1,0.3-0.2,0.5-0.2,0.8v3 c0,0.3,0.1,0.5,0.2,0.8c0.2,0.8,0.5,1.6,1,2.3l-1.5,1.5c-0.4,0.4-0.4,1,0,1.4l2.1,2.1c0.4,0.4,1,0.4,1.4,0l1.5-1.5 c0.7,0.5,1.5,0.8,2.3,1c0.3,0.1,0.5,0.2,0.8,0.2h3c0.3,0,0.5-0.1,0.8-0.2c0.8-0.2,1.6-0.5,2.3-1l1.5,1.5c0.4,0.4,1,0.4,1.4,0 l2.1-2.1c0.4-0.4,0.4-1,0-1.4l-1.5-1.5c0.5-0.7,0.8-1.5,1-2.3c0.1-0.3,0.2-0.5,0.2-0.8v-3C19.6,12,19.5,11.8,19.4,11.5z M12,16c-2.2,0-4-1.8-4-4s1.8-4,4-4s4,1.8,4,4S14.2,16,12,16z"/>
</svg>